<svg xmlns="http://www.w3.org/2000/svg" viewBox="0 0 120 120" fill="none">
  <defs>
    <linearGradient id="tone" x1="0" y1="0" x2="1" y2="1">
      <stop offset="0%" stop-color="#F2ECE2" />
      <stop offset="60%" stop-color="#E2D6C6" />
      <stop offset="100%" stop-color="#C8A45A" />
    </linearGradient>
    <radialGradient id="lens" cx="50%" cy="50%" r="50%">
      <stop offset="0%" stop-color="#1A1A1A" />
      <stop offset="70%" stop-color="#050505" />
      <stop offset="100%" stop-color="#000000" />
    </radialGradient>
  </defs>
  <rect width="120" height="120" rx="16" fill="#0A0A0A"/>
  <path d="M20 18 H44 C61 18 74 31 74 47 C74 63 61 76 44 76 H34 V96 H20 Z M34 30 V64 H44 C54 64 61 57 61 47 C61 37 54 30 44 30 Z" fill="url(#tone)"/>
  <path d="M50 90 L86 30 L95 30 L59 90 Z" fill="url(#tone)"/>
  <path d="M38 91 H85 C97 91 106 82 106 70 C106 58 97 48 85 48 H67 L73 38 H85 C103 38 116 51 116 69 C116 87 103 100 85 100 H27 Z" fill="url(#tone)"/>
  <circle cx="76" cy="71" r="16" fill="url(#lens)" stroke="#1E1E1E" stroke-width="2"/>
  <circle cx="76" cy="71" r="11.5" stroke="#2F2F2F" stroke-width="1.5"/>
  <circle cx="76" cy="71" r="7.5" stroke="#4B4B4B" stroke-width="1.2"/>
  <circle cx="81" cy="66" r="1.7" fill="#C8A45A"/>
</svg>
